<svg width="48" height="48" viewBox="0 0 48 48" fill="none" xmlns="http://www.w3.org/2000/svg">
<rect width="48" height="48" rx="10" fill="#123333"/>
<path d="M26.3099 35.7152C25.9099 35.7152 25.5599 35.5652 25.2599 35.2652C24.9599 34.9652 24.8099 34.6052 24.8099 34.1852V15.8852L22.6199 16.8152C22.2799 16.9552 21.9599 17.0252 21.6599 17.0252C21.2199 17.0252 20.8499 16.8852 20.5499 16.6052C20.2699 16.3252 20.1299 15.9652 20.1299 15.5252C20.1299 15.2052 20.2099 14.9152 20.3699 14.6552C20.5299 14.3952 20.7799 14.2052 21.1199 14.0852L25.7999 12.4052C25.8999 12.3652 25.9999 12.3352 26.0999 12.3152C26.1999 12.2952 26.2899 12.2852 26.3699 12.2852C26.8299 12.2852 27.1899 12.4352 27.4499 12.7352C27.7299 13.0152 27.8699 13.3852 27.8699 13.8452V34.1852C27.8699 34.6052 27.7199 34.9652 27.4199 35.2652C27.1199 35.5652 26.7499 35.7152 26.3099 35.7152Z" fill="#FAFAFA"/>
</svg>
