<svg width="48" height="48" viewBox="0 0 48 48" fill="none" xmlns="http://www.w3.org/2000/svg">
<rect width="48" height="48" rx="10" fill="#123333"/>
<path d="M24.2246 35.7295C22.7246 35.7295 21.3946 35.4195 20.2346 34.7995C19.0746 34.1595 18.1646 33.2995 17.5046 32.2195C16.8446 31.1195 16.5146 29.8895 16.5146 28.5295C16.5146 28.0695 16.6446 27.6995 16.9046 27.4195C17.1846 27.1195 17.5146 26.9695 17.8946 26.9695C18.2946 26.9695 18.6246 27.1195 18.8846 27.4195C19.1446 27.6995 19.2746 28.0695 19.2746 28.5295C19.2746 29.3495 19.4846 30.1095 19.9046 30.8095C20.3246 31.4895 20.8946 32.0395 21.6146 32.4595C22.3346 32.8595 23.1446 33.0595 24.0446 33.0595C25.3646 33.0595 26.4246 32.6995 27.2246 31.9795C28.0446 31.2395 28.4546 30.2095 28.4546 28.8895C28.4546 28.0495 28.2746 27.2995 27.9146 26.6395C27.5546 25.9595 27.0646 25.4195 26.4446 25.0195C25.8246 24.6195 25.1246 24.4195 24.3446 24.4195C23.9046 24.4195 23.5346 24.2695 23.2346 23.9695C22.9546 23.6695 22.8146 23.2995 22.8146 22.8595C22.8146 22.4195 22.9546 22.0595 23.2346 21.7795C23.5346 21.4795 23.9046 21.3295 24.3446 21.3295C24.9046 21.3295 25.4446 21.1895 25.9646 20.9095C26.4846 20.6095 26.9146 20.2195 27.2546 19.7395C27.5946 19.2395 27.7646 18.6795 27.7646 18.0595C27.7646 17.1795 27.4446 16.4395 26.8046 15.8395C26.1646 15.2395 25.3446 14.9395 24.3446 14.9395C23.5846 14.9395 22.8846 15.0895 22.2446 15.3895C21.6246 15.6895 21.1246 16.0895 20.7446 16.5895C20.3846 17.0895 20.2046 17.6495 20.2046 18.2695C20.2046 18.7295 20.0746 19.1195 19.8146 19.4395C19.5546 19.7395 19.2246 19.8895 18.8246 19.8895C18.4446 19.8895 18.1146 19.7495 17.8346 19.4695C17.5746 19.1695 17.4446 18.7995 17.4446 18.3595C17.4446 17.1995 17.7446 16.1595 18.3446 15.2395C18.9446 14.3195 19.7646 13.5995 20.8046 13.0795C21.8446 12.5395 23.0046 12.2695 24.2846 12.2695C25.4646 12.2695 26.5246 12.5295 27.4646 13.0495C28.4246 13.5495 29.1746 14.2395 29.7146 15.1195C30.2746 15.9795 30.5546 16.9595 30.5546 18.0595C30.5546 18.8395 30.3746 19.5295 30.0146 20.1295C29.6746 20.7295 29.2346 21.2495 28.6946 21.6895C28.1546 22.1095 27.5847 22.4595 26.9846 22.7395C28.0447 23.0995 28.9046 23.5895 29.5646 24.2095C30.2246 24.8095 30.7046 25.5095 31.0047 26.3095C31.3246 27.1095 31.4846 27.9795 31.4846 28.9195C31.4846 30.2195 31.1546 31.3895 30.4946 32.4295C29.8347 33.4495 28.9546 34.2595 27.8546 34.8595C26.7546 35.4395 25.5446 35.7295 24.2246 35.7295Z" fill="#FAFAFA"/>
</svg>
