<svg width="48" height="48" viewBox="0 0 48 48" fill="none" xmlns="http://www.w3.org/2000/svg">
<rect width="48" height="48" rx="10" fill="#123333"/>
<path d="M18.4353 35.7152C17.9953 35.7152 17.6253 35.5652 17.3253 35.2652C17.0453 34.9652 16.9053 34.6052 16.9053 34.1852C16.9053 33.7452 17.0453 33.3852 17.3253 33.1052L25.8453 23.1452C26.4453 22.4452 26.9053 21.7852 27.2253 21.1652C27.5653 20.5452 27.7353 19.9552 27.7353 19.3952C27.7353 18.5152 27.5853 17.7552 27.2853 17.1152C26.9853 16.4752 26.5553 15.9852 25.9953 15.6452C25.4353 15.2852 24.7653 15.1052 23.9853 15.1052C23.2253 15.1052 22.5353 15.3052 21.9153 15.7052C21.3153 16.0852 20.8353 16.6052 20.4753 17.2652C20.1353 17.9052 19.9653 18.6152 19.9653 19.3952C19.9653 19.7952 19.8153 20.1452 19.5153 20.4452C19.2353 20.7452 18.8753 20.8952 18.4353 20.8952C18.0153 20.8952 17.6553 20.7452 17.3553 20.4452C17.0553 20.1452 16.9053 19.7952 16.9053 19.3952C16.9053 18.0352 17.2153 16.8252 17.8353 15.7652C18.4553 14.6852 19.2953 13.8352 20.3553 13.2152C21.4353 12.5952 22.6453 12.2852 23.9853 12.2852C25.3453 12.2852 26.5253 12.5752 27.5253 13.1552C28.5253 13.7352 29.2953 14.5552 29.8353 15.6152C30.3953 16.6752 30.6753 17.9352 30.6753 19.3952C30.6753 20.0352 30.5353 20.6852 30.2553 21.3452C29.9953 22.0052 29.6553 22.6352 29.2353 23.2352C28.8353 23.8352 28.4253 24.3752 28.0053 24.8552L21.1353 32.6552H29.5353C29.9753 32.6552 30.3453 32.8152 30.6453 33.1352C30.9453 33.4352 31.0953 33.7852 31.0953 34.1852C31.0953 34.6052 30.9453 34.9652 30.6453 35.2652C30.3453 35.5652 29.9753 35.7152 29.5353 35.7152H18.4353Z" fill="#FAFAFA"/>
</svg>
