<svg width="142" height="32" viewBox="0 0 142 32" fill="none" xmlns="http://www.w3.org/2000/svg">
<path d="M28.053 14.4016C29.3819 14.4016 30.5164 13.9316 31.4566 12.9898C32.4005 12.0554 32.8743 10.9256 32.8743 9.60048C32.8743 8.27534 32.4024 7.1474 31.4566 6.21114C30.5183 5.27119 29.3837 4.79937 28.053 4.79937C26.7223 4.79937 25.5896 5.26935 24.6493 6.21114C23.7054 7.14556 23.2316 8.27534 23.2316 9.60048V14.3997H18.4121V9.60048C18.4121 6.95388 19.3505 4.69063 21.229 2.81442C23.115 0.940058 25.3897 0.00195312 28.053 0.00195312C30.7163 0.00195312 32.9835 0.940058 34.8677 2.81627C36.7518 4.69248 37.6939 6.95388 37.6939 9.60232C37.6939 12.2508 36.7518 14.5195 34.8677 16.3957C32.9835 18.2664 30.7126 19.2008 28.053 19.2008V14.4016ZM18.414 24.0001V19.2008H23.2335V24.0001H18.414Z" fill="#AFF900"/>
<path d="M73.4625 14.3996H63.8216C63.8216 15.7248 64.2954 16.8546 65.2411 17.789C66.1795 18.7326 67.3122 19.2026 68.6448 19.2026H73.4625V24H68.6448C65.9778 24 63.705 23.0619 61.8208 21.1949C59.946 19.3187 59.0039 17.0554 59.0039 14.3996V0H63.8216V9.60037H73.4625V14.3978V14.3996Z" fill="#AFF900"/>
<path d="M93.9603 14.3996V24H89.137V14.3996C89.137 13.0782 88.6688 11.9484 87.7212 11.0103C86.7828 10.0722 85.6501 9.60037 84.3175 9.60037C82.9849 9.60037 81.8522 10.0722 80.9139 11.0103C79.9718 11.9484 79.498 13.0782 79.498 14.3996H74.6748V0H79.498V6.06358C80.9324 5.22316 82.5352 4.80295 84.3157 4.80295C86.9734 4.80295 89.2462 5.74105 91.1304 7.61358C93.0145 9.48979 93.9566 11.753 93.9566 14.3996H93.9603Z" fill="#AFF900"/>
<path d="M14.2901 14.6021H9.43914V9.77148H4.85098V14.6021H0V19.1691H4.85098V23.9997H9.43914V19.1691H14.2901V14.6021Z" fill="#AFF900"/>
<path d="M57.7883 14.4534C57.7883 14.4257 57.7865 14.3981 57.7865 14.3686V14.2083H57.7828C57.6532 9.0533 53.4778 4.91016 48.3492 4.91016C43.2206 4.91016 38.9082 9.18415 38.9082 14.4534C38.9082 19.7226 43.1336 24.0003 48.3492 24.0003C50.113 24.0003 51.7621 23.5101 53.1743 22.6586V23.9874H57.7865V14.5382C57.7865 14.5105 57.7883 14.4829 57.7883 14.4534ZM48.3677 19.3282C45.7081 19.3282 43.5519 17.1774 43.5519 14.529C43.5519 11.8805 45.7081 9.73338 48.3677 9.73338C51.0273 9.73338 53.0095 11.7091 53.1761 14.2083V14.8736C52.9984 17.3617 50.9181 19.3282 48.3695 19.3282H48.3677Z" fill="#AFF900"/>
<path d="M104.492 4.80273V4.80826C104.6 4.80273 104.712 4.80273 104.82 4.80273H104.492Z" fill="#AFF900"/>
<path d="M101.417 11.0155C101.255 11.1777 101.103 11.3491 100.966 11.5242C100.823 11.7085 100.962 11.9776 101.197 11.9776H112.967V11.972H114.177C114.334 11.972 114.462 12.0992 114.462 12.2559V14.4454C114.462 14.6094 114.456 14.7716 114.447 14.9356C114.331 17.3574 113.392 19.4437 111.634 21.1946C109.75 23.0671 107.477 23.9997 104.819 23.9997H100.944C100.786 23.9997 100.659 23.8725 100.659 23.7177L100.642 19.4861C100.642 19.3294 100.77 19.2023 100.927 19.2023H104.556C106.091 19.2023 107.597 18.5867 108.575 17.4071C108.623 17.35 108.669 17.291 108.713 17.2321C108.856 17.0441 108.719 16.775 108.484 16.775H95.4579C95.3006 16.775 95.1729 16.6478 95.1729 16.4912V14.2168H95.1877C95.2302 11.6495 96.1667 9.44707 98.0009 7.61694C99.8054 5.81998 101.971 4.88187 104.494 4.80631C104.601 4.80078 104.714 4.80078 104.821 4.80078H114.179C114.336 4.80078 114.464 4.92795 114.464 5.08461V9.31622C114.464 9.47287 114.336 9.60004 114.179 9.60004H104.821C103.494 9.60004 102.36 10.0719 101.417 11.0137V11.0155Z" fill="#AFF900"/>
</svg>
